<svg xmlns="http://www.w3.org/2000/svg" xmlns:xlink="http://www.w3.org/1999/xlink" width="113.935" height="53.673" viewBox="0 0 113.935 53.673">
  <defs>
    <clipPath id="clip-path">
      <rect id="Rectangle_26" data-name="Rectangle 26" width="113.935" height="53.673" fill="#fff"/>
    </clipPath>
  </defs>
  <g id="Group_48" data-name="Group 48" clip-path="url(#clip-path)">
    <path id="Path_1078" data-name="Path 1078" d="M.025,122.872A1.109,1.109,0,0,1,.882,121.5c3.782-1.434,6.611-4.248,9.743-6.633,4.291-3.268,8.168-7.092,13.023-9.606A20.3,20.3,0,0,1,32.35,103c4.772-.182,9.42.756,14.1,1.452q3.583.533,7.2.795c1.995.144,3.984.213,5.975.164a67.085,67.085,0,0,0,17.544-2.8,66.43,66.43,0,0,0,11.948-4.876,1.817,1.817,0,0,0,.951-.849c-3.7-.823-7.207-2.545-11.144-1.663a33.788,33.788,0,0,0-3.662,1.254.654.654,0,0,1-.22-.99c1.983-3.695,4.633-6.573,9.007-7.322a16.749,16.749,0,0,1,5.288.427c3.511.509,6.989,1.318,10.573,1.187.571-.021.572.01,1.154.526a15.321,15.321,0,0,1-3.373,5.081c-3.394,3.752-7.62,6.351-11.995,8.784A67.534,67.534,0,0,1,59.26,112.21c-1.7.17-3.408.188-5.1.294-2.292.144-4.611-.18-6.919-.25-3.424-.1-6.759-.894-10.148-1.28a29.2,29.2,0,0,0-15.07,2.489,26.539,26.539,0,0,0-8.079,5.5,19.607,19.607,0,0,1-3.7,3.036,5.93,5.93,0,0,1-3.143.886c-2.345-.036-4.692-.011-7.069-.011" transform="translate(0 -69.211)" fill="#fff"/>
    <path id="Path_1079" data-name="Path 1079" d="M465.939,107.7c-.3-.468-.066-.888.141-1.3a16.64,16.64,0,0,1,4.435-5.393,4.619,4.619,0,0,0,1.255-1.336c-.481-2.206-2.339-3.178-3.945-4.344a1.986,1.986,0,0,1,.286-1.851,40.8,40.8,0,0,1,5.992-7.535c1.323-.512,2.1.194,2.882.895,1.671,1.507,3.093,3.141,3.03,5.6a5.094,5.094,0,0,1-.9,2.59,38.2,38.2,0,0,1-11.535,12.078,2.42,2.42,0,0,1-1.642.592" transform="translate(-366.083 -67.408)" fill="#fff"/>
    <path id="Path_1080" data-name="Path 1080" d="M364.552,44.534c.707-1.767,1.8-3.22,2.744-5.078a42.057,42.057,0,0,1,6.028,3.367,43.215,43.215,0,0,1-2.906,5.085c-2.062-1.01-3.925-2.19-5.867-3.374" transform="translate(-286.513 -31.01)" fill="#fff"/>
    <path id="Path_1081" data-name="Path 1081" d="M464.138,44.507a39.279,39.279,0,0,1,2.888-5.037c2.029.9,3.761,2.2,5.831,3.282A36.941,36.941,0,0,1,470.1,47.9a41.888,41.888,0,0,1-5.959-3.389" transform="translate(-364.78 -31.021)" fill="#fff"/>
    <path id="Path_1082" data-name="Path 1082" d="M380.794,192.893c-.962,2.158-3.83,2.925-5.916,2.224a1.949,1.949,0,0,1-.922-2.622,5.58,5.58,0,0,1,1.8-2.457c.283-.247.561-.5.907-.809-.963-.6-1.819-.014-2.651-.049a1.625,1.625,0,0,1,1.5-1.936c.387-.043.783,0,1.175-.015.618-.016,1.26-.047,1.575.625a1.66,1.66,0,0,1-.38,1.693,6.46,6.46,0,0,1-1.6,1.559,3.385,3.385,0,0,0-1.363,1.807,2.732,2.732,0,0,0,2.863.767c1.029-.164,1.976-.625,3.007-.788" transform="translate(-293.785 -147.145)" fill="#fff"/>
    <path id="Path_1083" data-name="Path 1083" d="M440.453,1.487a1.442,1.442,0,0,0-1.071.545c.3.772,1.639,1.594.1,2.428-1.781-.579-2.158-1.962-.92-3.239,1.024-1.056,2.152-1.471,2.907-1.07.826.439,1.132,1.6.8,3.067a5.134,5.134,0,0,1-1.679,2.67,9.818,9.818,0,0,1-5.454,2.428c-.082.01-.177-.08-.268-.125-.006-.55.46-.593.778-.768a28.221,28.221,0,0,0,4.1-2.26,2.82,2.82,0,0,0,1.45-2.646c-.065-.52-.214-.884-.745-1.029" transform="translate(-341.774 0)" fill="#fff"/>
  </g>
</svg>
